<?xml version="1.0" encoding="iso-8859-1"?>
<!-- Generator: Adobe Illustrator 24.2.3, SVG Export Plug-In . SVG Version: 6.00 Build 0)  -->
<svg version="1.1" id="Ebene_1" xmlns="http://www.w3.org/2000/svg" xmlns:xlink="http://www.w3.org/1999/xlink" x="0px" y="0px"
	 viewBox="0 0 283.465 103.513" style="enable-background:new 0 0 283.465 103.513;" xml:space="preserve">
<g>
	<g>
		<polygon style="fill:#164292;" points="189.531,0.832 226.528,0.884 226.528,36.373 268.876,0.832 236.971,0.832 283.22,65.312 
			243.21,65.312 226.581,39.126 226.533,65.312 189.533,65.312 189.531,0.832 		"/>
	</g>
	<g>
		<path style="fill:#164292;" d="M133.425,0.52l18.5,24.369c0,0,7.794-4.311,8.316-10.6c0.516-6.287-1.82-7.844-3.587-9.976
			c-1.767-2.131-4.988-3.376-6.966-3.793C147.716,0.104,133.997,0.051,133.425,0.52"/>
	</g>
	<g>
		<polygon style="fill:#164292;" points="153.899,27.228 168.552,45.779 179.465,27.332 153.899,27.228 		"/>
	</g>
	<g>
		<path style="fill:#164292;" d="M140.442,65.16l37.671,0.104L127.085,0.001c0,0-9.091,1.041-14.392,8.471
			c-5.3,7.43-4.729,12.678-3.742,15.638C109.937,27.072,138.309,63.705,140.442,65.16"/>
	</g>
	<g>
		<path style="fill:#164292;" d="M108.537,31.437l24.213,31.281c0,0-2.962,2.91-13.194,2.337
			c-10.24-0.573-14.397-0.416-18.709-4.053c-4.315-3.637-6.391-8.313-6.183-13.976c0.206-5.665,2.077-8.159,4.833-10.705
			C102.249,33.774,105.211,31.698,108.537,31.437"/>
	</g>
	<g>
		<polygon style="fill:#164292;" points="0.247,0.884 37.244,0.884 37.244,36.659 79.283,0.936 47.586,0.832 93.26,65.315 
			54.287,65.315 37.244,40.373 37.3,65.312 0.247,65.312 0.247,0.884 		"/>
	</g>
	<g>
		<polygon style="fill:#1A171B;" points="98.028,103.327 100.289,103.327 100.289,88.638 115.601,103.327 118.972,103.327 
			118.972,86.609 116.711,86.609 116.711,101.295 101.4,86.609 98.028,86.609 98.028,103.327 		"/>
	</g>
	<g>
		<polygon style="fill:#1A171B;" points="123.275,103.327 139.786,103.327 139.786,101.481 125.539,101.481 125.539,95.635 
			139.141,95.635 139.141,93.791 125.539,93.791 125.539,88.456 139.696,88.456 139.696,86.609 123.275,86.609 123.275,103.327 		
			"/>
	</g>
	<g>
		<polygon style="fill:#1A171B;" points="149.857,103.327 152.121,103.327 152.121,88.456 160.574,88.456 160.574,86.609 
			141.407,86.609 141.407,88.456 149.857,88.456 149.857,103.327 		"/>
	</g>
	<g>
		<polygon style="fill:#1A171B;" points="167.762,103.327 170.668,103.327 176.35,88.638 182.029,103.327 184.941,103.327 
			191.592,86.609 189.374,86.609 183.465,101.295 177.809,86.609 174.897,86.609 169.172,101.227 163.327,86.609 161.111,86.609 
			167.762,103.327 		"/>
	</g>
	<g>
		<path style="fill:#1A171B;" d="M193.521,97.254c0,4.226,1.43,6.258,5.953,6.258h9.629c4.531,0,5.961-2.033,5.961-6.258V92.68
			c0-4.225-1.43-6.255-5.961-6.255h-9.629c-4.523,0-5.953,2.03-5.953,6.255V97.254L193.521,97.254z M212.799,98.108
			c0,2.91-1.754,3.555-3.927,3.555h-9.166c-2.169,0-3.924-0.645-3.924-3.555v-6.279c0-2.911,1.755-3.557,3.924-3.557h9.166
			c2.172,0,3.927,0.646,3.927,3.557V98.108L212.799,98.108z"/>
	</g>
	<g>
		<path style="fill:#1A171B;" d="M221.191,94.874v-6.418h10.302c3.326,0,4.131,0.6,4.131,2.47v1.524
			c0,1.755-1.061,2.424-3.578,2.424H221.191L221.191,94.874z M218.926,103.327h2.264v-6.604h11.038c2.057,0,3.326,0.322,3.326,2.932
			v3.672h2.126v-4.272c0-1.525-0.555-2.725-2.863-3.14v-0.047c1.729-0.16,3.069-0.808,3.069-3.162v-1.365
			c0-3.139-0.762-4.731-5.586-4.731h-13.375V103.327L218.926,103.327z"/>
	</g>
	<g>
		<polygon style="fill:#1A171B;" points="241.869,103.327 244.127,103.327 244.127,95.545 246.787,95.545 258.264,103.327 
			262.234,103.327 262.277,103.281 249.21,94.643 261.195,86.654 261.15,86.609 257.453,86.609 246.97,93.698 244.127,93.698 
			244.127,86.609 241.869,86.609 241.869,103.327 		"/>
	</g>
	<g>
		<path style="fill:#1A171B;" d="M264.25,99.286c0,3.65,2.909,4.226,6.211,4.226h6.281c3.349,0,6.723-0.301,6.723-4.411v-1.084
			c0-2.84-1.85-4.111-6.263-4.111h-6.695c-3.533,0-4.157-0.67-4.157-2.655c0-2.749,1.545-2.979,5.912-2.979h2.402
			c5.936,0,6.211,0.485,6.257,3.141h2.126v-0.577c0-2.982-1.409-4.412-7.02-4.412h-4.873c-4.664,0-6.927,0.854-6.927,4.667
			c0,4.432,2.263,4.846,9.169,4.846h4.295c2.816,0,3.645,0.531,3.645,2.635c0,2.399-0.967,3.093-4.25,3.093h-7.019
			c-2.817,0-3.694-0.786-3.694-2.425v-1.176h-2.123V99.286L264.25,99.286z"/>
	</g>
	<g>
		<rect x="0" y="72.539" style="fill:#1A171B;" width="283.221" height="2.091"/>
	</g>
</g>
</svg>
